<mxfile host="app.diagrams.net" modified="2024-04-28T10:30:46.870Z" agent="Mozilla/5.0 (Windows NT 10.0; Win64; x64) AppleWebKit/537.36 (KHTML, like Gecko) Chrome/124.0.0.0 Safari/537.36" etag="v6UD9wtB26tnS_PSr9-_" version="24.2.5" type="github">
  <diagram name="第 1 页" id="bIJQWiIN-ijO457cF4HR">
    <mxGraphModel dx="797" dy="351" grid="1" gridSize="10" guides="1" tooltips="1" connect="1" arrows="1" fold="1" page="1" pageScale="1" pageWidth="827" pageHeight="1169" math="0" shadow="0">
      <root>
        <mxCell id="0" />
        <mxCell id="1" parent="0" />
      </root>
    </mxGraphModel>
  </diagram>
</mxfile>
